<?xml version="1.0" encoding="utf-8"?>
<!-- Generator: Adobe Illustrator 16.0.0, SVG Export Plug-In . SVG Version: 6.00 Build 0)  -->
<!DOCTYPE svg PUBLIC "-//W3C//DTD SVG 1.1//EN" "http://www.w3.org/Graphics/SVG/1.1/DTD/svg11.dtd">
<svg version="1.1" id="Layer_1" xmlns="http://www.w3.org/2000/svg" xmlns:xlink="http://www.w3.org/1999/xlink" x="0px" y="0px"
	 width="130px" height="130px" viewBox="0 0 130 130" enable-background="new 0 0 130 130" xml:space="preserve">
<g>
	<path fill-rule="evenodd" clip-rule="evenodd" fill="#BCBCBC" d="M-0.082,116.692c0.355,0.091,0.655-0.032,0.925-0.253
		c3.295-2.657,7.123-4.026,11.236-4.837c6.406-1.261,12.787-2.655,19.179-3.994c0.189,0.695,0.751,1.101,1.267,1.499
		c2.528,1.944,5.271,3.531,8.217,4.762c6.104,2.549,12.519,3.792,19.068,4.19c6.936,0.42,13.852-0.038,20.623-1.728
		c6.319-1.574,12.302-3.879,17.09-8.549c2.955,0.125,5.766,1.064,8.648,1.598c3.953,0.729,7.865,1.701,11.809,2.484
		c4.16,0.825,7.727,2.811,11.024,5.365c0.33,0.256,0.575,0.661,1.079,0.604c0,13.178-0.013-2.035,0.021,11.143
		c0.003,0.852,0.187,1.273-1.023,1.023c-42.722-0.027-85.443-0.027-128.165,0c-0.851,0-1.025-0.172-1.023-1.023
		C-0.072,115.418-0.082,130.252-0.082,116.692z"/>
	<path fill-rule="evenodd" clip-rule="evenodd" fill="#EDEDED" d="M96.885,46.183c2.365,0.571,2.931,1.291,2.94,3.696
		c0.016,2.848-0.397,5.58-1.296,8.331c-0.778,2.377-1.509,4.751-2.713,6.937c-0.771,1.398-1.819,1.439-2.942,0.257
		c-0.523-0.554-0.703-0.882-1.137,0.199c-1.216,3.021-2.876,5.827-4.632,8.58c-1.699,2.663-3.646,5.108-5.813,7.393
		c-0.152,0.159-0.218,0.403-0.324,0.604c-1.993,0.989-3.469,2.697-5.37,3.836c-2.799,1.673-5.747,2.949-8.991,3.236
		c-6.073,0.541-11.132-1.901-15.737-5.617c-0.97-0.783-1.685-1.92-2.97-2.297c-0.474-1.689-1.964-2.61-2.98-3.885
		c-2.508-3.146-4.45-6.619-6.169-10.233c-0.181-0.382-0.452-0.726-0.597-1.118c-0.372-1.006-0.577-1.945-1.579-0.293
		c-0.48,0.793-1.386,0.953-2.194-0.095c-1.697-2.199-2.363-4.833-3.195-7.367c-0.907-2.762-1.477-5.633-1.304-8.595
		c0.119-2.032,0.948-3.145,2.564-3.279c0.642,2.516,1.283,5.031,1.97,7.725c0.169-0.296,0.265-0.398,0.291-0.517
		c1.036-4.824,2.391-9.56,4.045-14.206c1.19-3.337,2.661-6.441,6.015-8.304c5.403-3.001,11.417-2.997,16.541,0.896
		c1.888,1.434,3.751,2.872,5.925,3.881c3.927,1.821,8.098,2.733,12.351,3.02c3.438,0.231,6.934,0.463,10.367-0.189
		c2.406-0.458,3.218-0.032,3.855,2.37c0.674,2.535,0.938,5.116,0.894,7.735c-0.024,1.554-0.005,3.108-0.005,4.663
		C95.741,51.142,95.934,48.559,96.885,46.183z"/>
	<path fill-rule="evenodd" clip-rule="evenodd" fill="#BCBCBC" d="M96.885,46.183c-0.951,2.375-1.144,4.958-2.189,7.363
		c0-1.555-0.02-3.109,0.005-4.663c0.045-2.62-0.22-5.201-0.894-7.735c-0.638-2.402-1.449-2.827-3.855-2.37
		c-3.434,0.652-6.929,0.42-10.367,0.189c-4.253-0.286-8.424-1.199-12.351-3.02c-2.174-1.009-4.037-2.447-5.925-3.881
		c-5.124-3.893-11.138-3.897-16.541-0.896c-3.354,1.863-4.825,4.966-6.015,8.304c-1.655,4.646-3.01,9.382-4.045,14.206
		c-0.025,0.118-0.121,0.221-0.291,0.517c-0.687-2.693-1.328-5.209-1.97-7.725c-0.288-1.37-0.455-2.778-0.882-4.102
		c-2.107-6.529-1.009-12.933,0.654-19.319c0.809-3.107,2.228-5.932,4.089-8.552c2.536-3.571,6.2-5.168,10.318-5.959
		c6.583-1.266,13.196-1.004,19.832-0.408c5.15,0.463,10.229,1.305,15.276,2.383c5.245,1.12,10.097,2.998,13.737,7.193
		c3.611,4.161,5.053,9.007,4.188,14.405C98.897,36.831,97.821,41.495,96.885,46.183z"/>
	<path fill-rule="evenodd" clip-rule="evenodd" fill="#EDEDED" d="M97.523,107.783c-4.788,4.67-10.771,6.975-17.09,8.549
		c-6.771,1.689-13.687,2.147-20.623,1.728c-6.549-0.398-12.965-1.642-19.068-4.19c-2.946-1.23-5.689-2.817-8.217-4.762
		c-0.516-0.398-1.078-0.804-1.267-1.499c1.792-0.69,3.607-1.328,5.371-2.087c4.458-1.922,7.048-5.536,8.613-9.94
		c1.393-3.916,2.243-7.968,2.352-12.147c0.011-0.45-0.157-0.97,0.359-1.285c0.436,0.475,0.506,1.113,0.731,1.68
		c2.508,6.301,6.765,10.777,13.566,12.131c4.848,0.963,9.803,0.674,14.701,0.028c2.009-0.264,3.998-0.661,5.995-0.998
		c0.94,0.744,1.144,1.921,1.586,2.919c1.438,3.229,3.677,5.539,6.857,7.139C93.401,106.057,95.619,106.564,97.523,107.783z"/>
	<path fill-rule="evenodd" clip-rule="evenodd" fill="#BCBCBC" d="M82.946,94.989c-1.997,0.337-3.986,0.734-5.995,0.998
		c-4.898,0.646-9.854,0.935-14.701-0.028c-6.801-1.354-11.058-5.83-13.566-12.131c-0.225-0.566-0.295-1.205-0.731-1.68
		c-0.017-0.27-0.035-0.541-0.053-0.811c1.285,0.377,2,1.514,2.97,2.297c4.605,3.716,9.664,6.158,15.737,5.617
		c3.244-0.287,6.192-1.563,8.991-3.236c1.901-1.139,3.377-2.847,5.37-3.836c0.106,3.275,1.005,6.418,1.545,9.621
		C82.69,92.856,83.125,93.882,82.946,94.989z"/>
</g>
</svg>
