<?xml version="1.0" encoding="utf-8"?>
<!-- Generator: Adobe Illustrator 16.0.0, SVG Export Plug-In . SVG Version: 6.00 Build 0)  -->
<!DOCTYPE svg PUBLIC "-//W3C//DTD SVG 1.1//EN" "http://www.w3.org/Graphics/SVG/1.1/DTD/svg11.dtd">
<svg version="1.1" id="Layer_1" xmlns="http://www.w3.org/2000/svg" xmlns:xlink="http://www.w3.org/1999/xlink" x="0px" y="0px"
	 width="102.483px" height="39.749px" viewBox="0 0 102.483 39.749" enable-background="new 0 0 102.483 39.749"
	 xml:space="preserve">
<g>
	<g transform="translate(17.580055, 136.395496)">
		<g>
			<path d="M7.385-102.113c2.404,0,4.458-0.853,6.161-2.555c1.701-1.708,2.553-3.765,2.553-6.168v-10.677
				c0-2.404-0.853-4.457-2.553-6.161c-1.704-1.707-3.757-2.563-6.161-2.563H-8.886c-2.404,0-4.459,0.856-6.161,2.563
				c-1.704,1.704-2.554,3.757-2.554,6.161v10.677c0,2.404,0.851,4.46,2.554,6.168c1.701,1.702,3.756,2.555,6.161,2.555H7.385z
				 M7.385-105.604H-8.886c-1.438,0-2.669-0.512-3.694-1.539c-1.026-1.023-1.539-2.256-1.539-3.693v-10.677
				c0-1.436,0.513-2.669,1.539-3.694c1.025-1.026,2.256-1.538,3.694-1.538H7.385c1.45,0,2.682,0.512,3.704,1.538
				c1.018,1.024,1.529,2.258,1.529,3.694v10.677c0,1.437-0.511,2.669-1.529,3.693C10.067-106.116,8.835-105.604,7.385-105.604z"/>
		</g>
	</g>
</g>
<g>
	<g transform="translate(77.33839, 136.395496)">
		<g>
			<path d="M-8.875-102.113h-2.369l-27.85-22.697v22.697h-3.491v-28.106h2.378l27.849,22.697v-22.697h3.482V-102.113z"/>
		</g>
	</g>
</g>
<g>
	<g transform="translate(140.560852, 136.395496)">
		<g>
			<path d="M-38.078-102.113h-31.968v-28.124h31.968v3.492h-28.478v8.838h25.181v3.492h-25.181v8.812h28.478V-102.113z"/>
		</g>
	</g>
</g>
</svg>
