<?xml version="1.0" encoding="utf-8"?>
<!-- Generator: Adobe Illustrator 16.0.0, SVG Export Plug-In . SVG Version: 6.00 Build 0)  -->
<!DOCTYPE svg PUBLIC "-//W3C//DTD SVG 1.1//EN" "http://www.w3.org/Graphics/SVG/1.1/DTD/svg11.dtd">
<svg version="1.1" id="Layer_1" xmlns="http://www.w3.org/2000/svg" xmlns:xlink="http://www.w3.org/1999/xlink" x="0px" y="0px"
	 width="78.61px" height="60.149px" viewBox="0 0 78.61 60.149" enable-background="new 0 0 78.61 60.149" xml:space="preserve">
<path fill-rule="evenodd" clip-rule="evenodd" fill="#BCBCBC" d="M44.434,60.148c-10.079,0-20.159,0.001-30.238,0
	c-2.907-0.001-3.146-0.18-3.89-2.95C7.256,45.845,4.209,34.491,1.164,23.137c-0.352-1.313-0.69-2.63-1.027-3.947
	c-0.385-1.504,0.021-2.307,1.515-2.723c4.275-1.19,8.561-2.344,12.847-3.498c8.108-2.184,16.217-4.364,24.328-6.534
	c6.449-1.726,12.903-3.433,19.355-5.148c1.429-0.38,2.855-0.769,4.286-1.139c1.664-0.43,2.535,0.057,2.974,1.677
	c1.046,3.859,2.119,7.712,3.093,11.59c0.296,1.178,0.833,1.673,2.06,1.627c1.917-0.071,3.84-0.034,5.759-0.007
	c1.486,0.021,2.083,0.6,2.223,2.091c0.041,0.437,0.034,0.879,0.034,1.319c0.002,12.759,0.002,25.518,0,38.278
	c0,2.854-0.568,3.423-3.457,3.424C64.913,60.151,54.673,60.148,44.434,60.148z M44.673,56.079c8.956,0,17.912,0.005,26.868-0.003
	c2.244-0.002,2.76-0.529,2.761-2.761c0.005-6.837,0.002-13.674,0.002-20.511c0-3.918,0.01-7.836-0.005-11.754
	c-0.006-1.668-0.649-2.309-2.313-2.382c-0.438-0.02-0.879-0.013-1.318-0.013c-17.232,0-34.465-0.001-51.697,0
	c-0.479,0-0.961-0.004-1.438,0.04c-1.776,0.161-2.46,0.809-2.464,2.591c-0.025,10.635-0.031,21.271,0.002,31.905
	c0.007,2.309,0.683,2.887,2.975,2.888C26.921,56.083,35.797,56.081,44.673,56.079z M22.933,14.681
	c0.012,0.075,0.023,0.15,0.035,0.225c0.219,0.039,0.437,0.11,0.655,0.11c6.916,0.005,13.831-0.002,20.746,0.011
	c0.843,0.001,1.315-0.391,1.647-1.125c0.805-1.779,2.199-2.685,4.163-2.684c1.96,0,3.218,1.101,4.028,2.734
	c0.376,0.757,0.837,1.084,1.656,1.076c2.398-0.021,4.797,0.009,7.195-0.013c1.277-0.012,1.504-0.293,1.18-1.541
	c-0.603-2.32-1.245-4.63-1.901-6.935c-0.441-1.552-1.177-2.026-2.771-1.668c-2.104,0.471-4.191,1.025-6.276,1.581
	c-9.305,2.481-18.605,4.974-27.906,7.471C24.559,14.145,23.75,14.427,22.933,14.681z M10.565,42.137
	c0.092-0.018,0.184-0.035,0.275-0.053c0.031-0.113,0.089-0.226,0.089-0.338c0.009-7.517,0.011-15.033,0.024-22.549
	c0.002-1.087-0.5-1.311-1.458-0.996c-0.643,0.212-1.313,0.344-1.974,0.499c-2.372,0.554-2.856,1.309-2.235,3.663
	c1.274,4.831,2.577,9.654,3.868,14.481C9.626,38.607,10.095,40.372,10.565,42.137z"/>
<path fill-rule="evenodd" clip-rule="evenodd" fill="#BCBCBC" d="M68.301,52.85c-0.686,0.108-1.37,0.311-2.056,0.312
	c-14.635,0.018-29.27,0.04-43.905-0.007c-3.732-0.012-4.106-0.395-3.898-4.115c0.089-1.588,0.522-3.267,1.231-4.688
	c1.924-3.86,4.078-7.604,6.141-11.395c0.974-1.791,1.651-1.957,3.276-0.705c2.817,2.172,5.611,4.372,8.407,6.571
	c1.78,1.399,2.702,1.227,3.803-0.744c0.117-0.209,0.22-0.426,0.34-0.634c0.975-1.691,1.904-1.942,3.52-0.873
	c2.599,1.72,5.179,3.469,7.759,5.218c4.829,3.274,9.653,6.556,14.476,9.842c0.347,0.236,0.656,0.529,0.983,0.796
	C68.352,52.567,68.326,52.709,68.301,52.85z"/>
<path fill-rule="evenodd" clip-rule="evenodd" fill="#BCBCBC" d="M64.478,26.767c-0.005,2.507-1.979,4.487-4.463,4.475
	c-2.433-0.011-4.388-1.975-4.409-4.426c-0.022-2.46,2.03-4.548,4.461-4.538C62.638,22.288,64.481,24.164,64.478,26.767z"/>
</svg>
