<?xml version="1.0" encoding="utf-8"?>
<!-- Generator: Adobe Illustrator 16.0.0, SVG Export Plug-In . SVG Version: 6.00 Build 0)  -->
<!DOCTYPE svg PUBLIC "-//W3C//DTD SVG 1.1//EN" "http://www.w3.org/Graphics/SVG/1.1/DTD/svg11.dtd">
<svg version="1.1" id="Layer_1" xmlns="http://www.w3.org/2000/svg" xmlns:xlink="http://www.w3.org/1999/xlink" x="0px" y="0px"
	 width="512px" height="512px" viewBox="0 0 512 512" enable-background="new 0 0 512 512" xml:space="preserve">
<path d="M129.457,326.53c24.79,0.003,44.888-20.09,44.892-44.88s-20.09-44.889-44.879-44.893s-44.889,20.09-44.892,44.879
	c0,0.006,0,0.009,0,0.014C84.581,306.436,104.672,326.526,129.457,326.53z"/>
<circle cx="382.493" cy="281.65" r="44.886"/>
<path d="M2.942,281.65c0,69.881,56.641,126.515,126.516,126.515c31.896,0.044,62.623-12.007,85.984-33.724l40.555,44.131
	l40.557-44.105c23.36,21.699,54.076,33.738,85.96,33.692c69.88,0,126.571-56.647,126.571-126.516
	c0.036-35.595-14.959-69.552-41.292-93.502l41.397-45.042h-91.774c-97.327-66.229-225.248-66.229-322.574,0H2.811l41.397,45.042
	C17.882,212.097,2.896,246.055,2.942,281.65z M468.115,281.65c0,47.288-38.334,85.622-85.622,85.622s-85.622-38.334-85.622-85.622
	s38.334-85.623,85.622-85.623S468.115,234.362,468.115,281.65L468.115,281.65z M255.979,134.819
	c32.633-0.041,64.946,6.42,95.056,19.005c-54.038,20.677-95.013,69.021-95.013,125.355c0-56.342-40.986-104.69-95.031-125.361
	C191.078,141.243,223.368,134.785,255.979,134.819z M129.457,196.027c47.288,0,85.622,38.335,85.622,85.623
	s-38.334,85.622-85.622,85.622s-85.623-38.334-85.623-85.622S82.169,196.027,129.457,196.027L129.457,196.027L129.457,196.027z"/>
</svg>
